<svg width="576" height="384" viewBox="0 0 576 384" fill="none" xmlns="http://www.w3.org/2000/svg">
<path d="M64 0C28.7 0 0 28.7 0 64V128C0 136.8 7.4 143.7 15.7 146.6C34.5 153.1 48 171 48 192C48 213 34.5 230.9 15.7 237.4C7.4 240.3 0 247.2 0 256V320C0 355.3 28.7 384 64 384H512C547.3 384 576 355.3 576 320V256C576 247.2 568.6 240.3 560.3 237.4C541.5 230.9 528 213 528 192C528 171 541.5 153.1 560.3 146.6C568.6 143.7 576 136.8 576 128V64C576 28.7 547.3 0 512 0H64ZM128 112V272C128 280.8 135.2 288 144 288H432C440.8 288 448 280.8 448 272V112C448 103.2 440.8 96 432 96H144C135.2 96 128 103.2 128 112ZM96 96C96 78.3 110.3 64 128 64H448C465.7 64 480 78.3 480 96V288C480 305.7 465.7 320 448 320H128C110.3 320 96 305.7 96 288V96Z" fill="white"/>
</svg>
